<?xml version="1.0" encoding="UTF-8" standalone="no"?>
<!-- Created with Inkscape (http://www.inkscape.org/) -->

<svg
   xmlns:dc="http://purl.org/dc/elements/1.1/"
   xmlns:cc="http://creativecommons.org/ns#"
   xmlns:rdf="http://www.w3.org/1999/02/22-rdf-syntax-ns#"
   xmlns:svg="http://www.w3.org/2000/svg"
   xmlns="http://www.w3.org/2000/svg"
   xmlns:sodipodi="http://sodipodi.sourceforge.net/DTD/sodipodi-0.dtd"
   xmlns:inkscape="http://www.inkscape.org/namespaces/inkscape"
   width="744.09448819"
   height="1052.3622047"
   id="svg3822"
   version="1.1"
   inkscape:version="0.48.4 r9939"
   sodipodi:docname="New document 3">
  <defs
     id="defs3824" />
  <sodipodi:namedview
     id="base"
     pagecolor="#ffffff"
     bordercolor="#666666"
     borderopacity="1.0"
     inkscape:pageopacity="0.0"
     inkscape:pageshadow="2"
     inkscape:zoom="2.8"
     inkscape:cx="182.05353"
     inkscape:cy="593.08875"
     inkscape:document-units="px"
     inkscape:current-layer="layer1"
     showgrid="false"
     inkscape:window-width="1362"
     inkscape:window-height="712"
     inkscape:window-x="0"
     inkscape:window-y="36"
     inkscape:window-maximized="0">
    <inkscape:grid
       type="xygrid"
       id="grid4353"
       empspacing="5"
       visible="true"
       enabled="true"
       snapvisiblegridlinesonly="true" />
  </sodipodi:namedview>
  <metadata
     id="metadata3827">
    <rdf:RDF>
      <cc:Work
         rdf:about="">
        <dc:format>image/svg+xml</dc:format>
        <dc:type
           rdf:resource="http://purl.org/dc/dcmitype/StillImage" />
        <dc:title></dc:title>
      </cc:Work>
    </rdf:RDF>
  </metadata>
  <g
     inkscape:label="Layer 1"
     inkscape:groupmode="layer"
     id="layer1">
    <rect
       style="fill:#1a1a1a;fill-opacity:1;stroke:none"
       id="rect3830"
       width="791.42859"
       height="537.14288"
       x="-293.82672"
       y="167.96368" />
    <rect
       style="fill:#000000;fill-opacity:1;stroke:none"
       id="rect4537"
       width="55"
       height="55"
       x="79.285713"
       y="388.07648" />
    <rect
       y="388.79077"
       x="142.85715"
       height="55"
       width="55"
       id="rect4539"
       style="fill:#000000;fill-opacity:1;stroke:none" />
    <rect
       style="fill:#000000;fill-opacity:1;stroke:none"
       id="rect4541"
       width="55"
       height="55"
       x="207.14287"
       y="388.79077" />
    <rect
       y="388.07648"
       x="272.85715"
       height="55"
       width="55"
       id="rect4543"
       style="fill:#000000;fill-opacity:1;stroke:none" />
    <rect
       style="fill:#000000;fill-opacity:1;stroke:none"
       id="rect4545"
       width="55"
       height="55"
       x="335"
       y="388.07648" />
    <rect
       y="386.64792"
       x="402.85715"
       height="55"
       width="55"
       id="rect4547"
       style="fill:#000000;fill-opacity:1;stroke:none" />
    <rect
       style="fill:#000000;fill-opacity:1;stroke:none"
       id="rect4549"
       width="55"
       height="55"
       x="13.571432"
       y="385.21936" />
    <g
       id="g4393"
       transform="matrix(0.67436364,0.2497771,-0.2497771,0.67436364,4.2821596,12.745812)">
      <path
         d="m 265.71429,504.50504 c 0,13.41263 -10.87309,24.28571 -24.28572,24.28571 -13.41263,0 -24.28571,-10.87308 -24.28571,-24.28571 0,-13.41263 10.87308,-24.28572 24.28571,-24.28572 13.41263,0 24.28572,10.87309 24.28572,24.28572 z"
         sodipodi:ry="24.285715"
         sodipodi:rx="24.285715"
         sodipodi:cy="504.50504"
         sodipodi:cx="241.42857"
         id="path3834"
         style="fill:#ffffff;fill-opacity:1;stroke:none"
         sodipodi:type="arc"
         transform="matrix(0.62349155,0,0,0.62349155,91.443158,187.99069)" />
      <path
         sodipodi:nodetypes="cc"
         inkscape:connector-curvature="0"
         id="path3836"
         d="m 245.98893,502.22529 c -2.71071,-7.54852 -0.42053,-14.7606 6.99271,-21.62802"
         style="fill:none;stroke:#ffffff;stroke-width:4.98793221;stroke-linecap:round;stroke-linejoin:miter;stroke-miterlimit:4;stroke-opacity:1;stroke-dasharray:none" />
      <g
         transform="matrix(0.77568254,-0.15205371,0.15205371,0.77568254,-24.505596,150.26316)"
         id="g4385">
        <g
           id="g4422"
           transform="translate(0.83575129,1.1588689)">
          <g
             transform="matrix(0.78302674,0.08230702,-0.08230702,0.78302674,93.945877,89.044639)"
             id="g4369">
            <path
               inkscape:connector-curvature="0"
               style="fill:none;stroke:#ffffff;stroke-width:1px;stroke-linecap:butt;stroke-linejoin:miter;stroke-opacity:1"
               d="m 242.40625,449.9375 0,15 0,-15 z M 190,502.375 l 15,0 -15,0 z m 89.84375,0 15,0 -15,0 z m -37.4375,37.40625 0,15 0,-15 z"
               id="path4355" />
            <path
               id="path4363"
               d="m 205.34296,465.30256 10.6066,10.6066 -10.6066,-10.6066 z m 0.0221,74.13573 10.6066,-10.6066 -10.6066,10.6066 z m 63.52913,-63.52913 10.6066,-10.6066 -10.6066,10.6066 z m -0.0221,52.92253 10.6066,10.6066 -10.6066,-10.6066 z"
               style="fill:none;stroke:#ffffff;stroke-width:1px;stroke-linecap:butt;stroke-linejoin:miter;stroke-opacity:1"
               inkscape:connector-curvature="0" />
          </g>
          <g
             transform="matrix(0.66432559,-0.42258351,0.42258351,0.66432559,-130.91481,271.07173)"
             id="g4373">
            <path
               inkscape:connector-curvature="0"
               id="path4375"
               d="m 242.40625,449.9375 0,15 0,-15 z M 190,502.375 l 15,0 -15,0 z m 89.84375,0 15,0 -15,0 z m -37.4375,37.40625 0,15 0,-15 z"
               style="fill:none;stroke:#ffffff;stroke-width:1px;stroke-linecap:butt;stroke-linejoin:miter;stroke-opacity:1" />
            <path
               inkscape:connector-curvature="0"
               style="fill:none;stroke:#ffffff;stroke-width:1px;stroke-linecap:butt;stroke-linejoin:miter;stroke-opacity:1"
               d="m 205.34296,465.30256 10.6066,10.6066 -10.6066,-10.6066 z m 0.0221,74.13573 10.6066,-10.6066 -10.6066,10.6066 z m 63.52913,-63.52913 10.6066,-10.6066 -10.6066,10.6066 z m -0.0221,52.92253 10.6066,10.6066 -10.6066,-10.6066 z"
               id="path4377" />
          </g>
        </g>
      </g>
    </g>
    <g
       id="g4551"
       transform="matrix(0.66995197,0,0,0.66995197,49.347234,75.830997)">
      <rect
         y="507.72549"
         x="365.36331"
         height="9.6305065"
         width="33.916222"
         id="rect4404"
         style="fill:#ffffff;fill-opacity:1;stroke:none" />
      <rect
         y="502.36218"
         x="370"
         height="5.8838835"
         width="22.5"
         id="rect4406"
         style="fill:#ffffff;fill-opacity:1;stroke:none" />
      <rect
         y="503.70038"
         x="390.42828"
         height="2.4746187"
         width="20"
         id="rect4411"
         style="fill:#ffffff;fill-opacity:1;stroke:none" />
      <rect
         ry="4.8152533"
         style="fill:#ffffff;fill-opacity:1;stroke:none"
         id="rect4413"
         width="44.77536"
         height="9.6305065"
         x="363.34302"
         y="509.74579" />
      <path
         sodipodi:nodetypes="ccccccccc"
         inkscape:connector-curvature="0"
         id="path4415"
         d="m 337.29886,505.85977 20,0 z m 3,4 17,0 z m 3,4 14,0 z"
         style="fill:none;stroke:#ffffff;stroke-width:2;stroke-linecap:butt;stroke-linejoin:miter;stroke-miterlimit:4;stroke-opacity:1;stroke-dasharray:none" />
    </g>
    <g
       id="g4582"
       transform="translate(-126.26907,-171.72593)">
      <path
         style="fill:#ffffff;fill-opacity:1;stroke:#ffffff;stroke-width:1.45402658;stroke-linecap:butt;stroke-miterlimit:4;stroke-opacity:1"
         d="m 274.70274,583.07384 0,10.89556 5.2873,0 c 0.0186,-0.0949 0.0462,-0.19619 0.0637,-0.29185 0.23789,0.0851 0.47847,0.14592 0.73258,0.14592 1.84803,0 3.37623,-2.37113 3.37623,-5.30185 0,-2.93073 -1.5282,-5.32618 -3.37623,-5.32618 -0.26334,0 -0.51862,0.0547 -0.76443,0.14592 -0.0136,-0.0906 -0.0176,-0.17645 -0.0318,-0.26752 l -5.28729,0 z"
         id="path4442"
         inkscape:connector-curvature="0" />
      <rect
         y="584.32648"
         x="289.46429"
         height="7.5"
         width="18.214285"
         id="rect4444"
         style="fill:#ffffff;fill-opacity:1;stroke:#ffffff;stroke-width:2;stroke-linecap:butt;stroke-miterlimit:4;stroke-opacity:1;stroke-dasharray:none" />
      <path
         style="fill:#ffffff;fill-opacity:1;stroke:#ffffff;stroke-width:2.44708753;stroke-linecap:butt;stroke-miterlimit:4;stroke-opacity:1;stroke-dasharray:none"
         d="m 172.0625,405.125 -1.125,1.625 13.5,9.40625 -13.34375,9.34375 1.09375,1.59375 14.6875,-10.21875 0.98461,-0.71748 L 186.75,415.375 z"
         transform="translate(126.26907,171.72593)"
         id="rect4446"
         inkscape:connector-curvature="0"
         sodipodi:nodetypes="ccccccccc" />
    </g>
    <g
       id="g4588"
       transform="matrix(1.3257739,0,0,1.3257739,128.48227,-363.45134)">
      <path
         inkscape:connector-curvature="0"
         id="rect4430"
         d="m 211.48845,582.00241 0,10.89556 5.2873,0 c 0.0186,-0.0949 0.0462,-0.19619 0.0637,-0.29185 0.23789,0.0851 0.47847,0.14592 0.73258,0.14592 1.84803,0 3.37623,-2.37113 3.37623,-5.30185 0,-2.93073 -1.5282,-5.32618 -3.37623,-5.32618 -0.26334,0 -0.51862,0.0547 -0.76443,0.14592 -0.0136,-0.0906 -0.0176,-0.17645 -0.0318,-0.26752 l -5.28729,0 z"
         style="fill:#ffffff;fill-opacity:1;stroke:#ffffff;stroke-width:1.45402658;stroke-linecap:butt;stroke-miterlimit:4;stroke-opacity:1" />
      <path
         inkscape:connector-curvature="0"
         id="path4432"
         d="m 224.57779,587.11167 17.89204,-9.55797"
         style="fill:#ffffff;stroke:#ffffff;stroke-width:2;stroke-linecap:butt;stroke-linejoin:miter;stroke-miterlimit:4;stroke-opacity:1;stroke-dasharray:none" />
      <path
         style="fill:#ffffff;stroke:#ffffff;stroke-width:2;stroke-linecap:butt;stroke-linejoin:miter;stroke-miterlimit:4;stroke-opacity:1;stroke-dasharray:none"
         d="m 224.83991,587.29335 17.72494,9.86439"
         id="path4434"
         inkscape:connector-curvature="0" />
      <path
         inkscape:connector-curvature="0"
         id="path4436"
         d="m 224,587.36218 21,0"
         style="fill:none;stroke:#ffffff;stroke-width:2;stroke-linecap:butt;stroke-linejoin:miter;stroke-miterlimit:4;stroke-opacity:1;stroke-dasharray:none" />
      <path
         inkscape:connector-curvature="0"
         id="path4450"
         d="m 240.44643,583.79075 c 1.07142,0.71429 5.26785,3.57143 5.26785,3.57143 l -5.625,3.30357"
         style="fill:none;stroke:#ffffff;stroke-width:1px;stroke-linecap:butt;stroke-linejoin:miter;stroke-opacity:1" />
      <path
         style="fill:none;stroke:#ffffff;stroke-width:1px;stroke-linecap:butt;stroke-linejoin:miter;stroke-opacity:1"
         d="m 236.67434,576.78018 c 1.28718,0.0363 6.36027,0.22868 6.36027,0.22868 l -3.01189,5.78642"
         id="path4452"
         inkscape:connector-curvature="0" />
      <path
         inkscape:connector-curvature="0"
         id="path4454"
         d="m 236.76362,597.70599 c 1.28718,-0.0363 6.36027,-0.22868 6.36027,-0.22868 l -3.01189,-5.78642"
         style="fill:none;stroke:#ffffff;stroke-width:1px;stroke-linecap:butt;stroke-linejoin:miter;stroke-opacity:1" />
    </g>
    <g
       id="g4578"
       transform="translate(-130.90141,-168.52216)">
      <path
         id="rect4456"
         d="m 357.34375,576.0625 0,7.59375 -7.59375,0 0,11.09375 7.59375,0 0,7.59375 11.125,0 0,-7.59375 7.5625,0 0,-11.09375 -7.5625,0 0,-7.59375 -11.125,0 z"
         style="fill:#ffffff;stroke:none"
         inkscape:connector-curvature="0" />
      <path
         inkscape:connector-curvature="0"
         style="fill:#ffffff;stroke:none"
         d="m 373.75242,566.21351 0,3.79938 -3.79937,0 0,5.55052 3.79937,0 0,3.79937 5.56616,0 0,-3.79937 3.78374,0 0,-5.55052 -3.78374,0 0,-3.79938 -5.56616,0 z"
         id="path4467" />
    </g>
    <g
       id="g4572"
       transform="matrix(1.3408322,0,0,1.3408322,-218.98197,-375.06089)">
      <path
         inkscape:connector-curvature="0"
         id="path4475"
         d="m 418.93306,588.0439 c 0.50647,0.37985 10.25611,8.61006 10.25611,8.61006 l 12.78848,-13.92805 9.74964,8.48345"
         style="fill:none;stroke:#ffffff;stroke-width:1.5;stroke-linecap:butt;stroke-linejoin:miter;stroke-miterlimit:4;stroke-opacity:1;stroke-dasharray:none" />
      <path
         style="fill:none;stroke:#ffffff;stroke-width:0.7090643px;stroke-linecap:butt;stroke-linejoin:miter;stroke-opacity:1"
         d="m 451.04656,587.11248 c 0.14514,0.90145 0.68264,4.46083 0.68264,4.46083 l -4.42951,-1.33211"
         id="path4477"
         inkscape:connector-curvature="0" />
      <rect
         y="576.04535"
         x="417.79721"
         height="5.4301176"
         width="33.894409"
         id="rect4479"
         style="fill:#ffffff;fill-opacity:1;stroke:#ffffff;stroke-width:1.18808663;stroke-linecap:butt;stroke-miterlimit:4;stroke-opacity:1;stroke-dasharray:none" />
      <rect
         style="fill:#ffffff;fill-opacity:1;stroke:#ffffff;stroke-width:1.1967243;stroke-linecap:butt;stroke-miterlimit:4;stroke-opacity:1;stroke-dasharray:none"
         id="rect4485"
         width="33.885773"
         height="5.5107656"
         x="417.80154"
         y="597.63428" />
    </g>
    <path
       sodipodi:type="arc"
       style="fill:none;stroke:#ff0000;stroke-width:1;stroke-linecap:butt;stroke-miterlimit:4;stroke-opacity:1;stroke-dasharray:none"
       id="path4487"
       sodipodi:cx="120"
       sodipodi:cy="557.36218"
       sodipodi:rx="25"
       sodipodi:ry="25"
       d="m 145,557.36218 a 25,25 0 1 1 -50,0"
       sodipodi:start="0"
       sodipodi:end="3.1415927"
       sodipodi:open="true"
       transform="matrix(-1,0,0,-1,240,1139.7244)" />
    <path
       transform="matrix(-0.96600448,0,0,-0.96600448,235.92054,1120.7936)"
       sodipodi:open="true"
       sodipodi:end="3.1415927"
       sodipodi:start="0"
       d="m 145,557.36218 a 25,25 0 1 1 -50,0"
       sodipodi:ry="25"
       sodipodi:rx="25"
       sodipodi:cy="557.36218"
       sodipodi:cx="120"
       id="path4489"
       style="fill:none;stroke:#ffa300;stroke-width:1;stroke-linecap:butt;stroke-miterlimit:4;stroke-opacity:1;stroke-dasharray:none"
       sodipodi:type="arc"
       inkscape:transform-center-y="-12.55804" />
    <path
       inkscape:transform-center-y="-12.10742"
       sodipodi:type="arc"
       style="fill:none;stroke:#fff500;stroke-width:1;stroke-linecap:butt;stroke-miterlimit:4;stroke-opacity:1;stroke-dasharray:none"
       id="path4491"
       sodipodi:cx="120"
       sodipodi:cy="557.36218"
       sodipodi:rx="25"
       sodipodi:ry="25"
       d="m 145,557.36218 a 25,25 0 1 1 -50,0"
       sodipodi:start="0"
       sodipodi:end="3.1415927"
       sodipodi:open="true"
       transform="matrix(-0.93134238,0,0,-0.93134238,231.76109,1101.4916)" />
    <path
       transform="matrix(-0.89734682,0,0,-0.89734682,227.68162,1082.5608)"
       sodipodi:open="true"
       sodipodi:end="3.1415927"
       sodipodi:start="0"
       d="m 145,557.36218 a 25,25 0 1 1 -50,0"
       sodipodi:ry="25"
       sodipodi:rx="25"
       sodipodi:cy="557.36218"
       sodipodi:cx="120"
       id="path4493"
       style="fill:none;stroke:#29ff00;stroke-width:1;stroke-linecap:butt;stroke-miterlimit:4;stroke-opacity:1;stroke-dasharray:none"
       sodipodi:type="arc"
       inkscape:transform-center-y="-11.665436" />
    <path
       inkscape:transform-center-y="-11.223518"
       sodipodi:type="arc"
       style="fill:none;stroke:#00e7ff;stroke-width:1;stroke-linecap:butt;stroke-miterlimit:4;stroke-opacity:1;stroke-dasharray:none"
       id="path4495"
       sodipodi:cx="120"
       sodipodi:cy="557.36218"
       sodipodi:rx="25"
       sodipodi:ry="25"
       d="m 145,557.36218 a 25,25 0 1 1 -50,0"
       sodipodi:start="0"
       sodipodi:end="3.1415927"
       sodipodi:open="true"
       transform="matrix(-0.8633512,0,0,-0.8633512,223.60215,1063.6299)" />
    <path
       transform="matrix(-0.82935561,0,0,-0.82935561,219.52268,1044.699)"
       sodipodi:open="true"
       sodipodi:end="3.1415927"
       sodipodi:start="0"
       d="m 145,557.36218 a 25,25 0 1 1 -50,0"
       sodipodi:ry="25"
       sodipodi:rx="25"
       sodipodi:cy="557.36218"
       sodipodi:cx="120"
       id="path4497"
       style="fill:none;stroke:#0044ff;stroke-width:1;stroke-linecap:butt;stroke-miterlimit:4;stroke-opacity:1;stroke-dasharray:none"
       sodipodi:type="arc"
       inkscape:transform-center-y="-10.781617" />
    <path
       inkscape:transform-center-y="-10.402791"
       sodipodi:type="arc"
       style="fill:none;stroke:#9d2cff;stroke-width:1;stroke-linecap:butt;stroke-miterlimit:4;stroke-opacity:1;stroke-dasharray:none"
       id="path4499"
       sodipodi:cx="120"
       sodipodi:cy="557.36218"
       sodipodi:rx="25"
       sodipodi:ry="25"
       d="m 145,557.36218 a 25,25 0 1 1 -50,0"
       sodipodi:start="0"
       sodipodi:end="3.1415927"
       sodipodi:open="true"
       transform="matrix(-0.80021659,0,0,-0.80021659,216.026,1028.4726)" />
    <g
       id="g4508">
      <path
         sodipodi:nodetypes="ccccccccc"
         inkscape:connector-curvature="0"
         id="rect4501"
         d="m 120,492.36218 10,0 5,5 0,10 -5,5 -10,0 -5,-5 0,-10 z"
         style="fill:#ffffff;fill-opacity:1;stroke:none" />
    </g>
    <g
       id="g4597"
       transform="matrix(1.3753977,0,0,1.3753977,-322.75799,-289.71992)">
      <path
         inkscape:connector-curvature="0"
         id="path4558"
         d="m 295.41703,508.78813 0,10.89556 5.2873,0 c 0.0186,-0.0949 0.0462,-0.19619 0.0637,-0.29185 0.23789,0.0851 0.47847,0.14592 0.73258,0.14592 1.84803,0 3.37623,-2.37113 3.37623,-5.30185 0,-2.93073 -1.5282,-5.32618 -3.37623,-5.32618 -0.26334,0 -0.51862,0.0547 -0.76443,0.14592 -0.0136,-0.0906 -0.0176,-0.17645 -0.0318,-0.26752 l -5.28729,0 z"
         style="fill:#ffffff;fill-opacity:1;stroke:#ffffff;stroke-width:1.05716813;stroke-linecap:butt;stroke-miterlimit:4;stroke-opacity:1" />
      <path
         style="fill:none;stroke:#ffffff;stroke-width:1.07823467;stroke-linecap:butt;stroke-linejoin:miter;stroke-miterlimit:4;stroke-opacity:1;stroke-dasharray:none"
         d="m 319.59919,513.62104 9.33085,0"
         id="path4562"
         inkscape:connector-curvature="0" />
      <path
         style="fill:none;stroke:#ffffff;stroke-width:0.72706246px;stroke-linecap:butt;stroke-linejoin:miter;stroke-opacity:1"
         d="m 323.78401,510.04961 c 1.07142,0.71429 5.26785,3.57143 5.26785,3.57143 l -5.625,3.30357"
         id="path4564"
         inkscape:connector-curvature="0" />
      <path
         inkscape:connector-curvature="0"
         id="path4566"
         d="m 315.28114,513.62104 2.3485,0"
         style="fill:none;stroke:#ffffff;stroke-width:1.07823467;stroke-linecap:butt;stroke-linejoin:miter;stroke-miterlimit:4;stroke-opacity:1;stroke-dasharray:none" />
      <path
         style="fill:none;stroke:#ffffff;stroke-width:1.07823467;stroke-linecap:butt;stroke-linejoin:miter;stroke-miterlimit:4;stroke-opacity:1;stroke-dasharray:none"
         d="m 311.5562,513.62104 2.3485,0"
         id="path4568"
         inkscape:connector-curvature="0" />
      <path
         inkscape:connector-curvature="0"
         id="path4570"
         d="m 307.57872,513.62104 2.3485,0"
         style="fill:none;stroke:#ffffff;stroke-width:1.07823467;stroke-linecap:butt;stroke-linejoin:miter;stroke-miterlimit:4;stroke-opacity:1;stroke-dasharray:none" />
    </g>
  </g>
</svg>
